# Tiled2Unity generated file. Do not modify by hand.
# Wavefront file for 'Cave1_mesh_0004.obj'

# Vertices (Count = 24)
v -7 -1 0
v -8 -1 0
v -8 0 0
v -7 0 0
v -7 -2 0
v -8 -2 0
v -8 -1 0
v -7 -1 0
v -18 -3 0
v -19 -3 0
v -19 -2 0
v -18 -2 0
v -18 -4 0
v -19 -4 0
v -19 -3 0
v -18 -3 0
v -18 -11 0
v -19 -11 0
v -19 -10 0
v -18 -10 0
v -18 -12 0
v -19 -12 0
v -19 -11 0
v -18 -11 0

# Texture cooridinates (Count = 9)
vt 0.2 0.96
vt 0.225 0.96
vt 0.225 1
vt 0.2 1
vt 0.2 0.92
vt 0.225 0.92
vt 0.175 0.96
vt 0.175 1
vt 0.175 0.92

# Normal
vn 0 0 -1

# Mesh description
g Cave1_mesh_0004

# Faces
f 1/1/1 2/2/1 3/3/1 4/4/1
f 5/5/1 6/6/1 7/2/1 8/1/1
f 9/7/1 10/1/1 11/4/1 12/8/1
f 13/9/1 14/5/1 15/1/1 16/7/1
f 17/7/1 18/1/1 19/4/1 20/8/1
f 21/9/1 22/5/1 23/1/1 24/7/1

