# Tiled2Unity generated file. Do not modify by hand.
# Wavefront file for 'StartArea_mesh_0003.obj'

# Vertices (Count = 216)
v -10 -2 0
v -11 -2 0
v -11 -1 0
v -10 -1 0
v -8 -2 0
v -9 -2 0
v -9 -1 0
v -8 -1 0
v -10 -3 0
v -11 -3 0
v -11 -2 0
v -10 -2 0
v -10 -4 0
v -11 -4 0
v -11 -3 0
v -10 -3 0
v -10 -5 0
v -11 -5 0
v -11 -4 0
v -10 -4 0
v -18 -6 0
v -19 -6 0
v -19 -5 0
v -18 -5 0
v -17 -6 0
v -18 -6 0
v -18 -5 0
v -17 -5 0
v -16 -6 0
v -17 -6 0
v -17 -5 0
v -16 -5 0
v -15 -6 0
v -16 -6 0
v -16 -5 0
v -15 -5 0
v -14 -6 0
v -15 -6 0
v -15 -5 0
v -14 -5 0
v -10 -6 0
v -11 -6 0
v -11 -5 0
v -10 -5 0
v -5 -6 0
v -6 -6 0
v -6 -5 0
v -5 -5 0
v -4 -6 0
v -5 -6 0
v -5 -5 0
v -4 -5 0
v -3 -6 0
v -4 -6 0
v -4 -5 0
v -3 -5 0
v -2 -6 0
v -3 -6 0
v -3 -5 0
v -2 -5 0
v -1 -6 0
v -2 -6 0
v -2 -5 0
v -1 -5 0
v -18 -7 0
v -19 -7 0
v -19 -6 0
v -18 -6 0
v -17 -7 0
v -18 -7 0
v -18 -6 0
v -17 -6 0
v -16 -7 0
v -17 -7 0
v -17 -6 0
v -16 -6 0
v -15 -7 0
v -16 -7 0
v -16 -6 0
v -15 -6 0
v -14 -7 0
v -15 -7 0
v -15 -6 0
v -14 -6 0
v -13 -7 0
v -14 -7 0
v -14 -6 0
v -13 -6 0
v -12 -7 0
v -13 -7 0
v -13 -6 0
v -12 -6 0
v -10 -7 0
v -11 -7 0
v -11 -6 0
v -10 -6 0
v -5 -7 0
v -6 -7 0
v -6 -6 0
v -5 -6 0
v -4 -7 0
v -5 -7 0
v -5 -6 0
v -4 -6 0
v -3 -7 0
v -4 -7 0
v -4 -6 0
v -3 -6 0
v -2 -7 0
v -3 -7 0
v -3 -6 0
v -2 -6 0
v -1 -7 0
v -2 -7 0
v -2 -6 0
v -1 -6 0
v -10 -8 0
v -11 -8 0
v -11 -7 0
v -10 -7 0
v -10 -9 0
v -11 -9 0
v -11 -8 0
v -10 -8 0
v -15 -10 0
v -16 -10 0
v -16 -9 0
v -15 -9 0
v -14 -10 0
v -15 -10 0
v -15 -9 0
v -14 -9 0
v -13 -10 0
v -14 -10 0
v -14 -9 0
v -13 -9 0
v -12 -10 0
v -13 -10 0
v -13 -9 0
v -12 -9 0
v -11 -10 0
v -12 -10 0
v -12 -9 0
v -11 -9 0
v -10 -10 0
v -11 -10 0
v -11 -9 0
v -10 -9 0
v -8 -10 0
v -9 -10 0
v -9 -9 0
v -8 -9 0
v -7 -10 0
v -8 -10 0
v -8 -9 0
v -7 -9 0
v -6 -10 0
v -7 -10 0
v -7 -9 0
v -6 -9 0
v -5 -10 0
v -6 -10 0
v -6 -9 0
v -5 -9 0
v -4 -10 0
v -5 -10 0
v -5 -9 0
v -4 -9 0
v -1 -10 0
v -2 -10 0
v -2 -9 0
v -1 -9 0
v -18 -14 0
v -19 -14 0
v -19 -13 0
v -18 -13 0
v -5 -17 0
v -6 -17 0
v -6 -16 0
v -5 -16 0
v -4 -17 0
v -5 -17 0
v -5 -16 0
v -4 -16 0
v -3 -17 0
v -4 -17 0
v -4 -16 0
v -3 -16 0
v -2 -17 0
v -3 -17 0
v -3 -16 0
v -2 -16 0
v -1 -17 0
v -2 -17 0
v -2 -16 0
v -1 -16 0
v -5 -18 0
v -6 -18 0
v -6 -17 0
v -5 -17 0
v -4 -18 0
v -5 -18 0
v -5 -17 0
v -4 -17 0
v -3 -18 0
v -4 -18 0
v -4 -17 0
v -3 -17 0
v -2 -18 0
v -3 -18 0
v -3 -17 0
v -2 -17 0
v -1 -18 0
v -2 -18 0
v -2 -17 0
v -1 -17 0

# Texture cooridinates (Count = 62)
vt 0 0.5
vt 0.025 0.5
vt 0.025 0.5277778
vt 0 0.5277778
vt 0.85 0.9166667
vt 0.875 0.9166667
vt 0.875 0.9444444
vt 0.85 0.9444444
vt 0.1 0.4722222
vt 0.125 0.4722222
vt 0.125 0.5
vt 0.1 0.5
vt 0.175 0.8888889
vt 0.15 0.8888889
vt 0.15 0.9166667
vt 0.175 0.9166667
vt 0.2 0.8888889
vt 0.2 0.9166667
vt 0.225 0.8888889
vt 0.225 0.9166667
vt 0.25 0.8888889
vt 0.25 0.9166667
vt 0.275 0.8888889
vt 0.275 0.9166667
vt 0.175 0.8611111
vt 0.15 0.8611111
vt 0.2 0.8611111
vt 0.225 0.8611111
vt 0.25 0.8611111
vt 0.275 0.8611111
vt 0.35 0.7777778
vt 0.375 0.7777778
vt 0.375 0.8055556
vt 0.35 0.8055556
vt 0.325 0.7777778
vt 0.325 0.8055556
vt 0.025 0.4444444
vt 0.05 0.4444444
vt 0.05 0.4722222
vt 0.025 0.4722222
vt 0.125 0.5277778
vt 0.1 0.5277778
vt 0.075 0.4722222
vt 0.075 0.5
vt 0.05 0.5
vt 0 0.4444444
vt 0 0.4722222
vt 0.375 0.8888889
vt 0.4 0.8888889
vt 0.4 0.9166667
vt 0.375 0.9166667
vt 0.35 0.8888889
vt 0.35 0.9166667
vt 0.325 0.8888889
vt 0.325 0.9166667
vt 0.3 0.8888889
vt 0.3 0.9166667
vt 0.375 0.8611111
vt 0.4 0.8611111
vt 0.35 0.8611111
vt 0.325 0.8611111
vt 0.3 0.8611111

# Normal
vn 0 0 -1

# Mesh description
g StartArea_mesh_0003

# Faces
f 1/1/1 2/2/1 3/3/1 4/4/1
f 5/5/1 6/6/1 7/7/1 8/8/1
f 9/9/1 10/10/1 11/11/1 12/12/1
f 13/9/1 14/10/1 15/11/1 16/12/1
f 17/9/1 18/10/1 19/11/1 20/12/1
f 21/13/1 22/14/1 23/15/1 24/16/1
f 25/17/1 26/13/1 27/16/1 28/18/1
f 29/19/1 30/17/1 31/18/1 32/20/1
f 33/21/1 34/19/1 35/20/1 36/22/1
f 37/23/1 38/21/1 39/22/1 40/24/1
f 41/9/1 42/10/1 43/11/1 44/12/1
f 45/21/1 46/23/1 47/24/1 48/22/1
f 49/19/1 50/21/1 51/22/1 52/20/1
f 53/17/1 54/19/1 55/20/1 56/18/1
f 57/13/1 58/17/1 59/18/1 60/16/1
f 61/14/1 62/13/1 63/16/1 64/15/1
f 65/25/1 66/26/1 67/14/1 68/13/1
f 69/27/1 70/25/1 71/13/1 72/17/1
f 73/28/1 74/27/1 75/17/1 76/19/1
f 77/29/1 78/28/1 79/19/1 80/21/1
f 81/30/1 82/29/1 83/21/1 84/23/1
f 85/31/1 86/32/1 87/33/1 88/34/1
f 89/35/1 90/31/1 91/34/1 92/36/1
f 93/9/1 94/10/1 95/11/1 96/12/1
f 97/29/1 98/30/1 99/23/1 100/21/1
f 101/28/1 102/29/1 103/21/1 104/19/1
f 105/27/1 106/28/1 107/19/1 108/17/1
f 109/25/1 110/27/1 111/17/1 112/13/1
f 113/26/1 114/25/1 115/13/1 116/14/1
f 117/9/1 118/10/1 119/11/1 120/12/1
f 121/9/1 122/10/1 123/11/1 124/12/1
f 125/37/1 126/38/1 127/39/1 128/40/1
f 129/12/1 130/11/1 131/41/1 132/42/1
f 133/12/1 134/11/1 135/41/1 136/42/1
f 137/12/1 138/11/1 139/41/1 140/42/1
f 141/12/1 142/11/1 143/41/1 144/42/1
f 145/39/1 146/43/1 147/44/1 148/45/1
f 149/37/1 150/38/1 151/39/1 152/40/1
f 153/12/1 154/11/1 155/41/1 156/42/1
f 157/12/1 158/11/1 159/41/1 160/42/1
f 161/12/1 162/11/1 163/41/1 164/42/1
f 165/46/1 166/37/1 167/40/1 168/47/1
f 169/5/1 170/6/1 171/7/1 172/8/1
f 173/5/1 174/6/1 175/7/1 176/8/1
f 177/48/1 178/49/1 179/50/1 180/51/1
f 181/52/1 182/48/1 183/51/1 184/53/1
f 185/54/1 186/52/1 187/53/1 188/55/1
f 189/56/1 190/54/1 191/55/1 192/57/1
f 193/23/1 194/56/1 195/57/1 196/24/1
f 197/58/1 198/59/1 199/49/1 200/48/1
f 201/60/1 202/58/1 203/48/1 204/52/1
f 205/61/1 206/60/1 207/52/1 208/54/1
f 209/62/1 210/61/1 211/54/1 212/56/1
f 213/30/1 214/62/1 215/56/1 216/23/1

