# Tiled2Unity generated file. Do not modify by hand.
# Wavefront file for 'StartArea_mesh_0002.obj'

# Vertices (Count = 24)
v -17 -2 0
v -18 -2 0
v -18 -1 0
v -17 -1 0
v -1 -2 0
v -2 -2 0
v -2 -1 0
v -1 -1 0
v -9 -3 0
v -10 -3 0
v -10 -2 0
v -9 -2 0
v -8 -11 0
v -9 -11 0
v -9 -10 0
v -8 -10 0
v -16 -12 0
v -17 -12 0
v -17 -11 0
v -16 -11 0
v -1 -13 0
v -2 -13 0
v -2 -12 0
v -1 -12 0

# Texture cooridinates (Count = 12)
vt 0.075 0.6666666
vt 0.1 0.6666666
vt 0.1 0.6944444
vt 0.075 0.6944444
vt 0.05 0.6388889
vt 0.075 0.6388889
vt 0.05 0.6666666
vt 0 0.75
vt 0.025 0.75
vt 0.025 0.7777778
vt 0 0.7777778
vt 0.1 0.6388889

# Normal
vn 0 0 -1

# Mesh description
g StartArea_mesh_0002

# Faces
f 1/1/1 2/2/1 3/3/1 4/4/1
f 5/5/1 6/6/1 7/1/1 8/7/1
f 9/8/1 10/9/1 11/10/1 12/11/1
f 13/1/1 14/2/1 15/3/1 16/4/1
f 17/6/1 18/12/1 19/2/1 20/1/1
f 21/5/1 22/6/1 23/1/1 24/7/1

