# Tiled2Unity generated file. Do not modify by hand.
# Wavefront file for 'Area1_mesh_0002.obj'

# Vertices (Count = 300)
v -19 -1 0
v -20 -1 0
v -20 0 0
v -19 0 0
v -18 -1 0
v -19 -1 0
v -19 0 0
v -18 0 0
v -17 -1 0
v -18 -1 0
v -18 0 0
v -17 0 0
v -16 -1 0
v -17 -1 0
v -17 0 0
v -16 0 0
v -15 -1 0
v -16 -1 0
v -16 0 0
v -15 0 0
v -14 -1 0
v -15 -1 0
v -15 0 0
v -14 0 0
v -13 -1 0
v -14 -1 0
v -14 0 0
v -13 0 0
v -12 -1 0
v -13 -1 0
v -13 0 0
v -12 0 0
v -11 -1 0
v -12 -1 0
v -12 0 0
v -11 0 0
v -10 -1 0
v -11 -1 0
v -11 0 0
v -10 0 0
v -9 -1 0
v -10 -1 0
v -10 0 0
v -9 0 0
v -8 -1 0
v -9 -1 0
v -9 0 0
v -8 0 0
v -7 -1 0
v -8 -1 0
v -8 0 0
v -7 0 0
v -6 -1 0
v -7 -1 0
v -7 0 0
v -6 0 0
v -5 -1 0
v -6 -1 0
v -6 0 0
v -5 0 0
v -4 -1 0
v -5 -1 0
v -5 0 0
v -4 0 0
v -3 -1 0
v -4 -1 0
v -4 0 0
v -3 0 0
v -2 -1 0
v -3 -1 0
v -3 0 0
v -2 0 0
v -1 -1 0
v -2 -1 0
v -2 0 0
v -1 0 0
v 0 -1 0
v -1 -1 0
v -1 0 0
v 0 0 0
v -19 -2 0
v -20 -2 0
v -20 -1 0
v -19 -1 0
v 0 -2 0
v -1 -2 0
v -1 -1 0
v 0 -1 0
v -19 -3 0
v -20 -3 0
v -20 -2 0
v -19 -2 0
v 0 -3 0
v -1 -3 0
v -1 -2 0
v 0 -2 0
v -19 -4 0
v -20 -4 0
v -20 -3 0
v -19 -3 0
v 0 -4 0
v -1 -4 0
v -1 -3 0
v 0 -3 0
v -19 -5 0
v -20 -5 0
v -20 -4 0
v -19 -4 0
v 0 -5 0
v -1 -5 0
v -1 -4 0
v 0 -4 0
v -19 -6 0
v -20 -6 0
v -20 -5 0
v -19 -5 0
v 0 -6 0
v -1 -6 0
v -1 -5 0
v 0 -5 0
v -19 -7 0
v -20 -7 0
v -20 -6 0
v -19 -6 0
v 0 -7 0
v -1 -7 0
v -1 -6 0
v 0 -6 0
v -19 -8 0
v -20 -8 0
v -20 -7 0
v -19 -7 0
v 0 -8 0
v -1 -8 0
v -1 -7 0
v 0 -7 0
v -19 -9 0
v -20 -9 0
v -20 -8 0
v -19 -8 0
v 0 -9 0
v -1 -9 0
v -1 -8 0
v 0 -8 0
v -19 -10 0
v -20 -10 0
v -20 -9 0
v -19 -9 0
v 0 -10 0
v -1 -10 0
v -1 -9 0
v 0 -9 0
v -19 -11 0
v -20 -11 0
v -20 -10 0
v -19 -10 0
v 0 -11 0
v -1 -11 0
v -1 -10 0
v 0 -10 0
v -19 -12 0
v -20 -12 0
v -20 -11 0
v -19 -11 0
v 0 -12 0
v -1 -12 0
v -1 -11 0
v 0 -11 0
v -19 -13 0
v -20 -13 0
v -20 -12 0
v -19 -12 0
v 0 -13 0
v -1 -13 0
v -1 -12 0
v 0 -12 0
v -19 -14 0
v -20 -14 0
v -20 -13 0
v -19 -13 0
v 0 -14 0
v -1 -14 0
v -1 -13 0
v 0 -13 0
v -19 -15 0
v -20 -15 0
v -20 -14 0
v -19 -14 0
v -19 -16 0
v -20 -16 0
v -20 -15 0
v -19 -15 0
v 0 -16 0
v -1 -16 0
v -1 -15 0
v 0 -15 0
v -19 -17 0
v -20 -17 0
v -20 -16 0
v -19 -16 0
v 0 -17 0
v -1 -17 0
v -1 -16 0
v 0 -16 0
v -19 -18 0
v -20 -18 0
v -20 -17 0
v -19 -17 0
v 0 -18 0
v -1 -18 0
v -1 -17 0
v 0 -17 0
v -19 -19 0
v -20 -19 0
v -20 -18 0
v -19 -18 0
v 0 -19 0
v -1 -19 0
v -1 -18 0
v 0 -18 0
v -19 -20 0
v -20 -20 0
v -20 -19 0
v -19 -19 0
v -18 -20 0
v -19 -20 0
v -19 -19 0
v -18 -19 0
v -17 -20 0
v -18 -20 0
v -18 -19 0
v -17 -19 0
v -16 -20 0
v -17 -20 0
v -17 -19 0
v -16 -19 0
v -15 -20 0
v -16 -20 0
v -16 -19 0
v -15 -19 0
v -14 -20 0
v -15 -20 0
v -15 -19 0
v -14 -19 0
v -13 -20 0
v -14 -20 0
v -14 -19 0
v -13 -19 0
v -12 -20 0
v -13 -20 0
v -13 -19 0
v -12 -19 0
v -11 -20 0
v -12 -20 0
v -12 -19 0
v -11 -19 0
v -10 -20 0
v -11 -20 0
v -11 -19 0
v -10 -19 0
v -9 -20 0
v -10 -20 0
v -10 -19 0
v -9 -19 0
v -8 -20 0
v -9 -20 0
v -9 -19 0
v -8 -19 0
v -7 -20 0
v -8 -20 0
v -8 -19 0
v -7 -19 0
v -6 -20 0
v -7 -20 0
v -7 -19 0
v -6 -19 0
v -5 -20 0
v -6 -20 0
v -6 -19 0
v -5 -19 0
v -4 -20 0
v -5 -20 0
v -5 -19 0
v -4 -19 0
v -3 -20 0
v -4 -20 0
v -4 -19 0
v -3 -19 0
v -2 -20 0
v -3 -20 0
v -3 -19 0
v -2 -19 0
v -1 -20 0
v -2 -20 0
v -2 -19 0
v -1 -19 0
v 0 -20 0
v -1 -20 0
v -1 -19 0
v 0 -19 0

# Texture cooridinates (Count = 18)
vt 0.175 0.5
vt 0.2 0.5
vt 0.2 0.5277778
vt 0.175 0.5277778
vt 0.125 0.4444444
vt 0.15 0.4444444
vt 0.15 0.4722222
vt 0.125 0.4722222
vt 0.2 0.5555556
vt 0.175 0.5555556
vt 0.175 0.4722222
vt 0.15 0.5
vt 0.2 0.4722222
vt 0.15 0.5277778
vt 0.15 0.5555556
vt 0.1 0.4444444
vt 0.1 0.4722222
vt 0.125 0.5

# Normal
vn 0 0 -1

# Mesh description
g Area1_mesh_0002

# Faces
f 1/1/1 2/2/1 3/3/1 4/4/1
f 5/5/1 6/6/1 7/7/1 8/8/1
f 9/5/1 10/6/1 11/7/1 12/8/1
f 13/5/1 14/6/1 15/7/1 16/8/1
f 17/5/1 18/6/1 19/7/1 20/8/1
f 21/5/1 22/6/1 23/7/1 24/8/1
f 25/5/1 26/6/1 27/7/1 28/8/1
f 29/5/1 30/6/1 31/7/1 32/8/1
f 33/5/1 34/6/1 35/7/1 36/8/1
f 37/5/1 38/6/1 39/7/1 40/8/1
f 41/5/1 42/6/1 43/7/1 44/8/1
f 45/5/1 46/6/1 47/7/1 48/8/1
f 49/5/1 50/6/1 51/7/1 52/8/1
f 53/5/1 54/6/1 55/7/1 56/8/1
f 57/5/1 58/6/1 59/7/1 60/8/1
f 61/5/1 62/6/1 63/7/1 64/8/1
f 65/5/1 66/6/1 67/7/1 68/8/1
f 69/5/1 70/6/1 71/7/1 72/8/1
f 73/5/1 74/6/1 75/7/1 76/8/1
f 77/4/1 78/3/1 79/9/1 80/10/1
f 81/7/1 82/11/1 83/1/1 84/12/1
f 85/11/1 86/13/1 87/2/1 88/1/1
f 89/7/1 90/11/1 91/1/1 92/12/1
f 93/11/1 94/13/1 95/2/1 96/1/1
f 97/7/1 98/11/1 99/1/1 100/12/1
f 101/11/1 102/13/1 103/2/1 104/1/1
f 105/7/1 106/11/1 107/1/1 108/12/1
f 109/11/1 110/13/1 111/2/1 112/1/1
f 113/7/1 114/11/1 115/1/1 116/12/1
f 117/11/1 118/13/1 119/2/1 120/1/1
f 121/7/1 122/11/1 123/1/1 124/12/1
f 125/11/1 126/13/1 127/2/1 128/1/1
f 129/7/1 130/11/1 131/1/1 132/12/1
f 133/11/1 134/13/1 135/2/1 136/1/1
f 137/7/1 138/11/1 139/1/1 140/12/1
f 141/11/1 142/13/1 143/2/1 144/1/1
f 145/7/1 146/11/1 147/1/1 148/12/1
f 149/11/1 150/13/1 151/2/1 152/1/1
f 153/7/1 154/11/1 155/1/1 156/12/1
f 157/11/1 158/13/1 159/2/1 160/1/1
f 161/7/1 162/11/1 163/1/1 164/12/1
f 165/11/1 166/13/1 167/2/1 168/1/1
f 169/7/1 170/11/1 171/1/1 172/12/1
f 173/11/1 174/13/1 175/2/1 176/1/1
f 177/7/1 178/11/1 179/1/1 180/12/1
f 181/12/1 182/1/1 183/4/1 184/14/1
f 185/7/1 186/11/1 187/1/1 188/12/1
f 189/7/1 190/11/1 191/1/1 192/12/1
f 193/14/1 194/4/1 195/10/1 196/15/1
f 197/7/1 198/11/1 199/1/1 200/12/1
f 201/11/1 202/13/1 203/2/1 204/1/1
f 205/7/1 206/11/1 207/1/1 208/12/1
f 209/11/1 210/13/1 211/2/1 212/1/1
f 213/7/1 214/11/1 215/1/1 216/12/1
f 217/11/1 218/13/1 219/2/1 220/1/1
f 221/16/1 222/5/1 223/8/1 224/17/1
f 225/8/1 226/7/1 227/12/1 228/18/1
f 229/8/1 230/7/1 231/12/1 232/18/1
f 233/8/1 234/7/1 235/12/1 236/18/1
f 237/8/1 238/7/1 239/12/1 240/18/1
f 241/8/1 242/7/1 243/12/1 244/18/1
f 245/8/1 246/7/1 247/12/1 248/18/1
f 249/8/1 250/7/1 251/12/1 252/18/1
f 253/8/1 254/7/1 255/12/1 256/18/1
f 257/8/1 258/7/1 259/12/1 260/18/1
f 261/8/1 262/7/1 263/12/1 264/18/1
f 265/8/1 266/7/1 267/12/1 268/18/1
f 269/8/1 270/7/1 271/12/1 272/18/1
f 273/8/1 274/7/1 275/12/1 276/18/1
f 277/8/1 278/7/1 279/12/1 280/18/1
f 281/8/1 282/7/1 283/12/1 284/18/1
f 285/8/1 286/7/1 287/12/1 288/18/1
f 289/8/1 290/7/1 291/12/1 292/18/1
f 293/8/1 294/7/1 295/12/1 296/18/1
f 297/1/1 298/2/1 299/3/1 300/4/1

